<?xml version="1.0" encoding="UTF-8" standalone="no"?>
<!-- Created with Inkscape (http://www.inkscape.org/) -->

<svg
   xmlns:dc="http://purl.org/dc/elements/1.1/"
   xmlns:cc="http://creativecommons.org/ns#"
   xmlns:rdf="http://www.w3.org/1999/02/22-rdf-syntax-ns#"
   xmlns:svg="http://www.w3.org/2000/svg"
   xmlns="http://www.w3.org/2000/svg"
   xmlns:sodipodi="http://sodipodi.sourceforge.net/DTD/sodipodi-0.dtd"
   xmlns:inkscape="http://www.inkscape.org/namespaces/inkscape"
   width="128"
   height="60"
   viewBox="0 0 33.866666 15.875001"
   version="1.1"
   id="svg232"
   inkscape:version="0.92.2 2405546, 2018-03-11"
   sodipodi:docname="logo.svg">
  <defs
     id="defs226" />
  <sodipodi:namedview
     id="base"
     pagecolor="#ffffff"
     bordercolor="#666666"
     borderopacity="1.0"
     inkscape:pageopacity="0.0"
     inkscape:pageshadow="2"
     inkscape:zoom="3.959798"
     inkscape:cx="43.791065"
     inkscape:cy="23.223501"
     inkscape:document-units="mm"
     inkscape:current-layer="layer1"
     showgrid="false"
     units="px"
     inkscape:window-width="1366"
     inkscape:window-height="721"
     inkscape:window-x="0"
     inkscape:window-y="18"
     inkscape:window-maximized="1" />
  <metadata
     id="metadata229">
    <rdf:RDF>
      <cc:Work
         rdf:about="">
        <dc:format>image/svg+xml</dc:format>
        <dc:type
           rdf:resource="http://purl.org/dc/dcmitype/StillImage" />
        <dc:title />
      </cc:Work>
    </rdf:RDF>
  </metadata>
  <g
     inkscape:label="Layer 1"
     inkscape:groupmode="layer"
     id="layer1"
     transform="translate(0,-281.12499)">
    <g
       id="g134">
      <rect
         ry="0.93544334"
         y="281.125"
         x="8.9009603e-07"
         height="15.875"
         width="33.866665"
         id="rect330"
         style="opacity:1;fill:#ffffff;fill-opacity:1;stroke:none;stroke-width:0.47099999;stroke-miterlimit:4;stroke-dasharray:none;stroke-opacity:1" />
      <g
         transform="matrix(0.17867465,0,0,0.17928087,-8.3223289,270.04975)"
         id="g68">
        <path
           style="fill:#1f4190"
           inkscape:connector-curvature="0"
           id="path14"
           d="m 82.5,98.1 v 32.4 h -9.2 v -4.6 c -2.3,3.2 -5.8,5 -10.2,5 -9.2,0 -15.3,-6.7 -15.3,-16.7 0,-9.8 6,-16.4 15,-16.5 4.6,0 8.1,1.8 10.5,5.1 v -4.7 z m -9.3,17.5 v -2.2 c -0.5,-4.7 -3.6,-7.9 -8,-7.9 -4.8,0 -8.1,3.7 -8.2,9 0.1,5.3 3.3,9 8.2,9 4.4,0 7.6,-3.2 8,-7.9 z"
           class="st5" />
        <path
           style="fill:#1f4190"
           inkscape:connector-curvature="0"
           id="path16"
           d="m 105.7,128.8 c -2.4,1.4 -5.4,2.2 -8.3,2.2 -6,0 -10.4,-3.8 -10.4,-10.7 V 90.7 h 9.2 v 8.9 h 8.9 v 6.5 h -8.9 v 12.7 c 0,3.1 1.2,4.5 3.3,4.5 1.1,0 2.6,-0.4 4.2,-1.2 z"
           class="st5" />
        <path
           style="fill:#1f4190"
           inkscape:connector-curvature="0"
           id="path18"
           d="m 154.4,122.7 c 1,0 2,-0.4 3.1,-0.9 l 0.9,7.7 c -2.1,1 -4.2,1.4 -6.2,1.4 -5.4,0 -10,-3.6 -10,-11.2 v -34 h 9.2 v 33.4 c 0.1,2.6 1.3,3.6 3,3.6 z"
           class="st5" />
        <path
           style="fill:#1f4190"
           inkscape:connector-curvature="0"
           id="path20"
           d="m 172.1,98.1 v 32.4 h -9.3 V 98.1 Z"
           class="st5" />
        <path
           style="fill:#1f4190"
           inkscape:connector-curvature="0"
           id="path22"
           d="m 204,117.3 6.2,3.6 c -2.8,5.1 -7.1,8.3 -12.9,9.5 -10.1,2.1 -18.2,-3 -20.2,-12.7 -2,-9.6 3,-17.5 12.9,-19.6 9.2,-2 16.4,2.4 18.7,11.4 l -20.8,10.4 c 2,2.8 5.1,4.1 8.6,3.3 3,-0.7 5.6,-2.7 7.5,-5.9 z m -18.2,-2.7 13.1,-6.7 c -1.6,-2.9 -4.1,-3.8 -7.2,-3.2 -4.4,1 -6.7,4.5 -5.9,9.9 z"
           class="st5" />
        <path
           style="fill:#1f4190"
           inkscape:connector-curvature="0"
           id="path24"
           d="m 134.3,117.3 6.2,3.6 c -2.8,5.1 -7.1,8.3 -12.9,9.5 -10.1,2.1 -18.2,-3 -20.2,-12.7 -2,-9.6 3,-17.5 12.9,-19.6 9.2,-2 16.4,2.4 18.7,11.4 l -20.8,10.4 c 2,2.8 5.1,4.1 8.6,3.3 2.9,-0.7 5.6,-2.7 7.5,-5.9 z m -18.2,-2.7 13.1,-6.7 c -1.6,-2.9 -4.1,-3.8 -7.2,-3.2 -4.4,1 -6.7,4.5 -5.9,9.9 z"
           class="st5" />
        <path
           style="fill:#1f4190"
           inkscape:connector-curvature="0"
           id="path26"
           d="m 235,97.8 v 8.7 c -6.6,-0.6 -10.7,3 -10.7,8.4 v 15.6 H 215 V 98.1 h 9.3 v 5.8 c 2.2,-3.9 5.9,-6.1 10.7,-6.1 z"
           class="st5" />
        <g
           id="g52">
          <g
             id="g50">
            <path
               style="fill:#1f4190"
               inkscape:connector-curvature="0"
               id="path28"
               d="m 152.8,142.2 c 0,2.7 -1.6,4.5 -4.1,4.5 -1.1,0 -2.1,-0.4 -2.7,-1.2 v 4.3 h -2.9 v -12.1 h 2.9 v 1.2 c 0.6,-0.8 1.5,-1.2 2.6,-1.2 2.6,-0.1 4.2,1.7 4.2,4.5 z m -2.9,-0.1 c 0,-1.3 -0.8,-2.2 -1.9,-2.2 -1.1,0 -1.9,0.9 -1.9,2.2 0,1.3 0.8,2.2 1.9,2.2 1.1,0 1.9,-0.9 1.9,-2.2 z"
               class="st5" />
            <path
               style="fill:#1f4190"
               inkscape:connector-curvature="0"
               id="path30"
               d="m 160.1,137.6 v 2.7 c -1.6,-0.2 -2.7,0.6 -2.9,1.8 v 4.5 h -2.9 v -8.9 h 2.9 v 1.5 c 0.7,-1 1.7,-1.6 2.9,-1.6 z"
               class="st5" />
            <path
               style="fill:#1f4190"
               inkscape:connector-curvature="0"
               id="path32"
               d="m 164.3,137.7 v 8.9 h -2.9 v -8.9 z"
               class="st5" />
            <path
               style="fill:#1f4190"
               inkscape:connector-curvature="0"
               id="path34"
               d="m 175.6,141 v 5.6 h -2.9 v -4.8 c 0,-1 -0.6,-1.6 -1.5,-1.6 -1,0 -1.6,0.7 -1.7,1.7 v 4.7 h -2.9 v -8.9 h 2.9 v 1.4 c 0.6,-1 1.6,-1.6 2.9,-1.6 2,0.1 3.2,1.4 3.2,3.5 z"
               class="st5" />
            <path
               style="fill:#1f4190"
               inkscape:connector-curvature="0"
               id="path36"
               d="m 182.8,146.1 c -0.6,0.4 -1.5,0.6 -2.4,0.6 -1.8,0 -3,-1.1 -3,-3 v -8.1 h 2.9 v 2.5 h 2.3 v 1.9 h -2.3 v 3.2 c 0,0.7 0.3,1.1 0.8,1.1 0.3,0 0.7,-0.1 1.1,-0.3 z"
               class="st5" />
            <path
               style="fill:#1f4190"
               inkscape:connector-curvature="0"
               id="path38"
               d="m 190.7,143.4 1.6,1.5 c -1,1.2 -2.4,1.8 -4.1,1.8 -2.9,0 -4.8,-1.8 -4.8,-4.5 0,-2.7 1.8,-4.6 4.6,-4.6 2.7,0 4.4,1.6 4.5,4.2 l -5.9,1.4 c 0.3,0.8 1,1.2 1.8,1.2 0.8,0.1 1.6,-0.3 2.3,-1 z m -4.3,-1.7 3.3,-0.8 c -0.2,-0.8 -0.8,-1.2 -1.5,-1.2 -1,0 -1.7,0.7 -1.8,2 z"
               class="st5" />
            <path
               style="fill:#1f4190"
               inkscape:connector-curvature="0"
               id="path40"
               d="m 199.7,137.6 v 2.7 c -1.6,-0.2 -2.7,0.6 -2.9,1.8 v 4.5 H 194 v -8.9 h 2.9 v 1.5 c 0.6,-1 1.6,-1.6 2.8,-1.6 z"
               class="st5" />
            <path
               style="fill:#1f4190"
               inkscape:connector-curvature="0"
               id="path42"
               d="m 209.5,141.3 v 5.3 h -1.3 v -5 c 0,-1.5 -0.9,-2.5 -2.4,-2.5 -1.8,0 -2.9,1.3 -2.9,3.2 v 4.2 h -1.3 v -12.2 h 1.3 v 5.5 c 0.6,-1.3 1.8,-2 3.4,-2 2,0.1 3.2,1.4 3.2,3.5 z"
               class="st5" />
            <path
               style="fill:#1f4190"
               inkscape:connector-curvature="0"
               id="path44"
               d="m 220.3,142.3 c 0,2.6 -1.8,4.4 -4.4,4.4 -2.6,0 -4.4,-1.8 -4.4,-4.4 0,-2.6 1.8,-4.4 4.4,-4.4 2.5,0 4.4,1.8 4.4,4.4 z m -7.5,0 c 0,1.9 1.3,3.3 3.1,3.3 1.8,0 3.1,-1.3 3.1,-3.3 0,-1.9 -1.3,-3.2 -3.1,-3.2 -1.8,-0.1 -3.1,1.3 -3.1,3.2 z"
               class="st5" />
            <path
               style="fill:#1f4190"
               inkscape:connector-curvature="0"
               id="path46"
               d="m 224.7,139 c -1,0 -1.7,0.3 -1.7,1.2 0,2 4.8,1 4.8,4.1 0,1.7 -1.5,2.4 -3.2,2.4 -1.2,0 -2.5,-0.4 -3.3,-1.2 l 0.5,-0.9 c 0.7,0.7 1.9,1.1 2.9,1.1 1,0 1.8,-0.4 1.9,-1.3 0,-2.1 -4.8,-1 -4.8,-4.1 0,-1.6 1.4,-2.4 3,-2.4 1,0 2,0.3 2.8,0.8 l -0.5,1 c -0.7,-0.5 -1.6,-0.7 -2.4,-0.7 z"
               class="st5" />
            <path
               style="fill:#1f4190"
               inkscape:connector-curvature="0"
               id="path48"
               d="m 233.9,146 c -0.6,0.4 -1.3,0.6 -1.9,0.6 -1.3,0 -2.2,-0.9 -2.2,-2.8 v -7.9 h 1.3 v 2.3 h 2.7 v 1 H 231 v 4.4 c 0,1.2 0.4,1.8 1.2,1.8 0.4,0 0.9,-0.2 1.4,-0.4 z"
               class="st5" />
          </g>
        </g>
        <rect
           style="fill:#444242"
           id="rect54"
           height="4"
           width="187.3"
           class="st6"
           y="64.800003"
           x="47.700001" />
        <rect
           style="fill:#444242"
           id="rect56"
           height="4"
           width="86.400002"
           class="st6"
           y="139.8"
           x="47.700001" />
        <path
           style="fill:#1f4190"
           inkscape:connector-curvature="0"
           id="path58"
           d="m 170.7,89 c 0,-2.7 -1.3,-4.8 -2.8,-4.8 -1.5,0 -2.8,2.2 -2.8,4.8 0,0.9 0.1,2.1 0.7,2.9 0.7,1 1.4,2 2.1,3 0,-0.1 0.6,-0.8 0.6,-0.8 0.1,-0.2 0.3,-0.4 0.4,-0.6 l 0.1,-0.2 c 0.5,-0.6 1.1,-1.3 1.3,-2 0.3,-0.8 0.4,-1.5 0.4,-2.3 z"
           class="st5" />
        <path
           style="fill:#444242"
           inkscape:connector-curvature="0"
           id="path60"
           d="m 158.4,70.8 h -0.7 c -1.4,0 -2.5,1.1 -2.5,2.5 0,1.4 1.1,2.5 2.5,2.5 h 0.7 z"
           class="st6" />
        <path
           style="fill:#444242"
           inkscape:connector-curvature="0"
           id="path62"
           d="m 177.3,75.7 h 0.7 c 1.4,0 2.5,-1.1 2.5,-2.5 0,-1.4 -1.1,-2.5 -2.5,-2.5 h -0.7 z"
           class="st6" />
        <rect
           style="fill:#444242"
           id="rect64"
           height="20.6"
           width="15.2"
           class="st6"
           y="62.299999"
           x="160.3" />
        <rect
           style="fill:#444242"
           id="rect66"
           height="6"
           width="7.5999999"
           class="st6"
           y="82.300003"
           x="164.10001" />
      </g>
    </g>
  </g>
</svg>
