{
    "accessors" : [
        {
            "bufferView" : 0, 
            "componentType" : 5121, 
            "count" : 459, 
            "max" : [
                167
            ], 
            "min" : [
                0
            ], 
            "type" : "SCALAR"
        }, 
        {
            "bufferView" : 1, 
            "componentType" : 5126, 
            "count" : 168, 
            "max" : [
                1.3900001049041748, 
                1.3900001049041748, 
                0.15000000596046448
            ], 
            "min" : [
                -0.15000000596046448, 
                -0.15000000596046448, 
                -1.3900001049041748
            ], 
            "type" : "VEC3"
        }, 
        {
            "bufferView" : 2, 
            "componentType" : 5126, 
            "count" : 168, 
            "max" : [
                1.0, 
                1.0, 
                1.0
            ], 
            "min" : [
                -1.0, 
                -1.0, 
                -1.0
            ], 
            "type" : "VEC3"
        }, 
        {
            "bufferView" : 3, 
            "componentType" : 5126, 
            "count" : 168, 
            "max" : [
                1.0, 
                1.0, 
                1.0, 
                1.0
            ], 
            "min" : [
                0.0, 
                0.0, 
                0.0, 
                1.0
            ], 
            "type" : "VEC4"
        }
    ], 
    "asset" : {
        "generator" : "Khronos Blender glTF 2.0 exporter", 
        "version" : "2.0"
    }, 
    "bufferViews" : [
        {
            "buffer" : 0, 
            "byteLength" : 459, 
            "byteOffset" : 0, 
            "target" : 34963
        }, 
        {
            "buffer" : 0, 
            "byteLength" : 2016, 
            "byteOffset" : 460, 
            "target" : 34962
        }, 
        {
            "buffer" : 0, 
            "byteLength" : 2016, 
            "byteOffset" : 2476, 
            "target" : 34962
        }, 
        {
            "buffer" : 0, 
            "byteLength" : 2688, 
            "byteOffset" : 4492, 
            "target" : 34962
        }
    ], 
    "buffers" : [
        {
            "byteLength" : 7180, 
            "uri" : "axisgnomon.bin"
        }
    ], 
    "meshes" : [
        {
            "name" : "red", 
            "primitives" : [
                {
                    "attributes" : {
                        "COLOR_0" : 3, 
                        "NORMAL" : 2, 
                        "POSITION" : 1
                    }, 
                    "indices" : 0
                }
            ]
        }
    ], 
    "nodes" : [
        {
            "mesh" : 0, 
            "name" : "red", 
            "rotation" : [
                0.7071068286895752, 
                0.0, 
                -0.0, 
                0.7071068286895752
            ]
        }
    ], 
    "scene" : 0, 
    "scenes" : [
        {
            "name" : "Scene", 
            "nodes" : [
                0
            ]
        }
    ]
}
